# xmcd
#
# Track frame offsets:
#       150
#       32043
#       53995
#       73623
#       154960
#       184057
#       210892
#       239405
#       309315
#
# Disc length: 4661 seconds
#
# Revision: 2
# Processed by: cddbd v1.5.1PL0 Copyright (c) Steve Scherf et al.
# Submitted via: MusiCat 1.1
#
DISCID=75123309
DTITLE=John Mayall and the Blues Breakers and Friends - 70th Birthday Concert (D
DTITLE=isc 2)
DYEAR=2003
DGENRE=Blues
TTITLE0=Please Mr Lofton
TTITLE1=Hideaway
TTITLE2=All Your Love
TTITLE3=Have You Heard
TTITLE4=Hoochie Coochie Man
TTITLE5=I´m Tore Down
TTITLE6=It Ain´t Right
TTITLE7=California
TTITLE8=Talk to Your Daughter
EXTD=Eagle\n\n
EXTT0=
EXTT1=
EXTT2=
EXTT3=
EXTT4=
EXTT5=
EXTT6=
EXTT7=
EXTT8=
PLAYORDER=
